<?xml version="1.0" encoding="UTF-8" standalone="no"?>
<!DOCTYPE svg PUBLIC "-//W3C//DTD SVG 1.1//EN"
 "http://www.w3.org/Graphics/SVG/1.1/DTD/svg11.dtd">
<!-- Generated by graphviz version 8.0.5 (20230430.1635)
 -->
<!-- Pages: 1 -->
<svg width="537pt" height="260pt"
 viewBox="0.00 0.00 536.86 260.00" xmlns="http://www.w3.org/2000/svg" xmlns:xlink="http://www.w3.org/1999/xlink">
<g id="graph0" class="graph" transform="scale(1 1) rotate(0) translate(4 256)">
<polygon fill="white" stroke="none" points="-4,4 -4,-256 532.86,-256 532.86,4 -4,4"/>
<!-- [root] aws_instance.my_ec2 (expand) -->
<g id="node1" class="node">
<title>[root] aws_instance.my_ec2 (expand)</title>
<polygon fill="none" stroke="black" points="332.06,-108 196.81,-108 196.81,-72 332.06,-72 332.06,-108"/>
<text text-anchor="middle" x="264.43" y="-84.95" font-family="Times,serif" font-size="14.00">aws_instance.my_ec2</text>
</g>
<!-- [root] provider[&quot;registry.terraform.io/hashicorp/aws&quot;] -->
<g id="node2" class="node">
<title>[root] provider[&quot;registry.terraform.io/hashicorp/aws&quot;]</title>
<polygon fill="none" stroke="black" points="264.43,-36 0,-18 264.43,0 528.86,-18 264.43,-36"/>
<text text-anchor="middle" x="264.43" y="-12.95" font-family="Times,serif" font-size="14.00">provider[&quot;registry.terraform.io/hashicorp/aws&quot;]</text>
</g>
<!-- [root] aws_instance.my_ec2 (expand)&#45;&gt;[root] provider[&quot;registry.terraform.io/hashicorp/aws&quot;] -->
<g id="edge1" class="edge">
<title>[root] aws_instance.my_ec2 (expand)&#45;&gt;[root] provider[&quot;registry.terraform.io/hashicorp/aws&quot;]</title>
<path fill="none" stroke="black" d="M264.43,-71.7C264.43,-64.24 264.43,-55.32 264.43,-46.97"/>
<polygon fill="black" stroke="black" points="267.93,-47.1 264.43,-37.1 260.93,-47.1 267.93,-47.1"/>
</g>
<!-- [root] provider[&quot;registry.terraform.io/hashicorp/aws&quot;] (close) -->
<g id="node3" class="node">
<title>[root] provider[&quot;registry.terraform.io/hashicorp/aws&quot;] (close)</title>
<ellipse fill="none" stroke="black" cx="264.43" cy="-162" rx="238.16" ry="18"/>
<text text-anchor="middle" x="264.43" y="-156.95" font-family="Times,serif" font-size="14.00">[root] provider[&quot;registry.terraform.io/hashicorp/aws&quot;] (close)</text>
</g>
<!-- [root] provider[&quot;registry.terraform.io/hashicorp/aws&quot;] (close)&#45;&gt;[root] aws_instance.my_ec2 (expand) -->
<g id="edge2" class="edge">
<title>[root] provider[&quot;registry.terraform.io/hashicorp/aws&quot;] (close)&#45;&gt;[root] aws_instance.my_ec2 (expand)</title>
<path fill="none" stroke="black" d="M264.43,-143.7C264.43,-136.24 264.43,-127.32 264.43,-118.97"/>
<polygon fill="black" stroke="black" points="267.93,-119.1 264.43,-109.1 260.93,-119.1 267.93,-119.1"/>
</g>
<!-- [root] root -->
<g id="node4" class="node">
<title>[root] root</title>
<ellipse fill="none" stroke="black" cx="264.43" cy="-234" rx="49.3" ry="18"/>
<text text-anchor="middle" x="264.43" y="-228.95" font-family="Times,serif" font-size="14.00">[root] root</text>
</g>
<!-- [root] root&#45;&gt;[root] provider[&quot;registry.terraform.io/hashicorp/aws&quot;] (close) -->
<g id="edge3" class="edge">
<title>[root] root&#45;&gt;[root] provider[&quot;registry.terraform.io/hashicorp/aws&quot;] (close)</title>
<path fill="none" stroke="black" d="M264.43,-215.7C264.43,-208.24 264.43,-199.32 264.43,-190.97"/>
<polygon fill="black" stroke="black" points="267.93,-191.1 264.43,-181.1 260.93,-191.1 267.93,-191.1"/>
</g>
</g>
</svg>
